<svg width="1080" height="1080" viewBox="0 0 1080 1080" fill="none" xmlns="http://www.w3.org/2000/svg">
<rect width="1080" height="1080" rx="256" fill="#121212"/>
<g clip-path="url(#clip0_1_2)">
<path d="M753.333 444.747V646.667C753.334 662.991 747.097 678.699 735.898 690.576C724.699 702.453 709.384 709.602 693.088 710.56L689.333 710.667H390.667C374.342 710.668 358.634 704.43 346.757 693.231C334.88 682.032 327.731 666.718 326.773 650.421L326.667 646.667V444.747L528.16 579.083L530.635 580.491C533.551 581.916 536.754 582.656 540 582.656C543.246 582.656 546.449 581.916 549.365 580.491L551.84 579.083L753.333 444.747Z" fill="white"/>
<path d="M689.333 369.333C712.373 369.333 732.576 381.493 743.84 399.776L540 535.669L336.16 399.776C341.509 391.088 348.858 383.806 357.594 378.536C366.33 373.266 376.199 370.162 386.379 369.483L390.667 369.333H689.333Z" fill="white"/>
</g>
<defs>
<clipPath id="clip0_1_2">
<rect width="512" height="512" fill="white" transform="translate(284 284)"/>
</clipPath>
</defs>
</svg>
